<svg width="32" height="30" viewBox="0 0 32 30" fill="none" xmlns="http://www.w3.org/2000/svg">
<path d="M30.3085 1L18.2634 9.91249L20.5033 4.66007L30.3085 1Z" fill="#E17726" stroke="#E17726" stroke-width="0.229271" stroke-linecap="round" stroke-linejoin="round"/>
<path d="M2.5249 1L14.4627 9.99567L12.3301 4.66006L2.5249 1Z" fill="#E27625" stroke="#E27625" stroke-width="0.229271" stroke-linecap="round" stroke-linejoin="round"/>
<path d="M25.9714 21.665L22.7666 26.5609L29.629 28.4504L31.5949 21.772L25.9714 21.665Z" fill="#E27625" stroke="#E27625" stroke-width="0.229271" stroke-linecap="round" stroke-linejoin="round"/>
<path d="M1.25 21.772L3.20388 28.4504L10.0544 26.5609L6.86148 21.665L1.25 21.772Z" fill="#E27625" stroke="#E27625" stroke-width="0.229271" stroke-linecap="round" stroke-linejoin="round"/>
<path d="M9.68526 13.3943L7.77905 16.2701L14.57 16.5791L14.3437 9.27083L9.68526 13.3943Z" fill="#E27625" stroke="#E27625" stroke-width="0.229271" stroke-linecap="round" stroke-linejoin="round"/>
<path d="M23.1478 13.3944L18.4181 9.1877L18.2632 16.5791L25.0541 16.2702L23.1478 13.3944Z" fill="#E27625" stroke="#E27625" stroke-width="0.229271" stroke-linecap="round" stroke-linejoin="round"/>
<path d="M10.0547 26.5609L14.165 24.5765L10.6266 21.8195L10.0547 26.5609Z" fill="#E27625" stroke="#E27625" stroke-width="0.229271" stroke-linecap="round" stroke-linejoin="round"/>
<path d="M18.6685 24.5765L22.7668 26.5609L22.2068 21.8195L18.6685 24.5765Z" fill="#E27625" stroke="#E27625" stroke-width="0.229271" stroke-linecap="round" stroke-linejoin="round"/>
<path d="M22.7668 26.5611L18.6685 24.5767L19.002 27.2385L18.9662 28.3674L22.7668 26.5611Z" fill="#D5BFB2" stroke="#D5BFB2" stroke-width="0.229271" stroke-linecap="round" stroke-linejoin="round"/>
<path d="M10.0547 26.5611L13.8672 28.3674L13.8433 27.2385L14.165 24.5767L10.0547 26.5611Z" fill="#D5BFB2" stroke="#D5BFB2" stroke-width="0.229271" stroke-linecap="round" stroke-linejoin="round"/>
<path d="M13.9384 20.0608L10.531 19.0627L12.9376 17.9575L13.9384 20.0608Z" fill="#233447" stroke="#233447" stroke-width="0.229271" stroke-linecap="round" stroke-linejoin="round"/>
<path d="M18.8948 20.0608L19.8956 17.9575L22.3141 19.0627L18.8948 20.0608Z" fill="#233447" stroke="#233447" stroke-width="0.229271" stroke-linecap="round" stroke-linejoin="round"/>
<path d="M10.0545 26.5609L10.6502 21.665L6.86157 21.772L10.0545 26.5609Z" fill="#CC6228" stroke="#CC6228" stroke-width="0.229271" stroke-linecap="round" stroke-linejoin="round"/>
<path d="M22.1829 21.665L22.7667 26.5609L25.9715 21.772L22.1829 21.665Z" fill="#CC6228" stroke="#CC6228" stroke-width="0.229271" stroke-linecap="round" stroke-linejoin="round"/>
<path d="M25.0541 16.27L18.2632 16.579L18.8946 20.0608L19.8954 17.9574L22.3139 19.0626L25.0541 16.27Z" fill="#CC6228" stroke="#CC6228" stroke-width="0.229271" stroke-linecap="round" stroke-linejoin="round"/>
<path d="M10.5312 19.0626L12.9378 17.9574L13.9386 20.0608L14.57 16.579L7.77905 16.27L10.5312 19.0626Z" fill="#CC6228" stroke="#CC6228" stroke-width="0.229271" stroke-linecap="round" stroke-linejoin="round"/>
<path d="M7.77905 16.27L10.6265 21.8195L10.5311 19.0626L7.77905 16.27Z" fill="#E27525" stroke="#E27525" stroke-width="0.229271" stroke-linecap="round" stroke-linejoin="round"/>
<path d="M22.314 19.0626L22.2068 21.8195L25.0542 16.27L22.314 19.0626Z" fill="#E27525" stroke="#E27525" stroke-width="0.229271" stroke-linecap="round" stroke-linejoin="round"/>
<path d="M14.5702 16.5789L13.9387 20.0608L14.737 24.1724L14.9157 18.7536L14.5702 16.5789Z" fill="#E27525" stroke="#E27525" stroke-width="0.229271" stroke-linecap="round" stroke-linejoin="round"/>
<path d="M18.2633 16.5789L17.9297 18.7418L18.0965 24.1724L18.8947 20.0608L18.2633 16.5789Z" fill="#E27525" stroke="#E27525" stroke-width="0.229271" stroke-linecap="round" stroke-linejoin="round"/>
<path d="M18.8947 20.0609L18.0964 24.1725L18.6683 24.5766L22.2068 21.8196L22.314 19.0627L18.8947 20.0609Z" fill="#F5841F" stroke="#F5841F" stroke-width="0.229271" stroke-linecap="round" stroke-linejoin="round"/>
<path d="M10.531 19.0627L10.6264 21.8196L14.1648 24.5766L14.7367 24.1725L13.9384 20.0609L10.531 19.0627Z" fill="#F5841F" stroke="#F5841F" stroke-width="0.229271" stroke-linecap="round" stroke-linejoin="round"/>
<path d="M18.9664 28.3673L19.002 27.2384L18.6923 26.9769H14.1412L13.8433 27.2384L13.8672 28.3673L10.0547 26.561L11.389 27.6543L14.0935 29.52H18.728L21.4444 27.6543L22.7668 26.561L18.9664 28.3673Z" fill="#C0AC9D" stroke="#C0AC9D" stroke-width="0.229271" stroke-linecap="round" stroke-linejoin="round"/>
<path d="M18.6684 24.5765L18.0965 24.1725H14.7368L14.165 24.5765L13.8433 27.2384L14.1411 26.9769H18.6922L19.002 27.2384L18.6684 24.5765Z" fill="#161616" stroke="#161616" stroke-width="0.229271" stroke-linecap="round" stroke-linejoin="round"/>
<path d="M30.8206 10.4947L31.8334 5.57508L30.3083 1L18.6685 9.61544L23.148 13.3943L29.4744 15.2362L30.8683 13.6082L30.2608 13.1685L31.2257 12.2892L30.4871 11.7188L31.4521 10.982L30.8206 10.4947Z" fill="#763E1A" stroke="#763E1A" stroke-width="0.229271" stroke-linecap="round" stroke-linejoin="round"/>
<path d="M1 5.57508L2.0246 10.4947L1.36934 10.982L2.34628 11.7188L1.60761 12.2892L2.57264 13.1685L1.96503 13.6082L3.35897 15.2362L9.68533 13.3943L14.1649 9.61544L2.52499 1L1 5.57508Z" fill="#763E1A" stroke="#763E1A" stroke-width="0.229271" stroke-linecap="round" stroke-linejoin="round"/>
<path d="M29.4743 15.2362L23.148 13.3943L25.0542 16.2701L22.2068 21.8195L25.9716 21.772H31.595L29.4743 15.2362Z" fill="#F5841F" stroke="#F5841F" stroke-width="0.229271" stroke-linecap="round" stroke-linejoin="round"/>
<path d="M9.68505 13.3943L3.35877 15.2362L1.25 21.772H6.86148L10.6262 21.8195L7.77885 16.2701L9.68505 13.3943Z" fill="#F5841F" stroke="#F5841F" stroke-width="0.229271" stroke-linecap="round" stroke-linejoin="round"/>
<path d="M18.2632 16.579L18.6683 9.61535L20.503 4.66005H12.3301L14.1648 9.61535L14.5699 16.579L14.7248 18.7655L14.7367 24.1725H18.0964L18.1083 18.7655L18.2632 16.579Z" fill="#F5841F" stroke="#F5841F" stroke-width="0.229271" stroke-linecap="round" stroke-linejoin="round"/>
</svg>
